#!OML:ASF F:\VICON\USERDATA\INSTALL\rory3\rory3.ASF
:FULLY-SPECIFIED
:DEGREES
2667
root 0.557413 17.758 0.920148 3.73803 9.34132 -4.14754
lowerback 9.00487 2.02263 -0.418528
upperback -0.00949983 2.53835 -2.16299
thorax -4.98015 1.23835 -2.3507
lowerneck -24.8927 -13.9738 -11.7333
upperneck 3.645 -17.311 17.9731
head 7.77423 -7.08677 5.166
rclavicle -2.08724e-014 -1.59028e-014
rhumerus 52.0251 -22.0276 -14.5335
rradius 35.3972
rwrist 52.7289
rhand -55.9309 -19.9556
rfingers 7.12502
rthumb -28.2702 -47.8425
lclavicle -2.08724e-014 -1.59028e-014
lhumerus -44.8697 14.9246 57.9813
lradius 37.6572
lwrist -5.72981
lhand -21.9344 26.5598
lfingers 7.12502
lthumb 4.4721 -303.507
rfemur -13.9246 -12.5733 19.803
rtibia 30.472
rfoot -16.6192 -3.12428
rtoes 5.76924
lfemur -11.3208 -5.40991 -6.19281
ltibia 24.2344
lfoot -14.0346 4.65401
ltoes -22.9183
2668
root 0.521286 17.7565 0.928683 3.77278 9.19254 -3.94364
lowerback 8.96939 1.95271 -0.375562
upperback 0.0267498 2.45599 -2.06395
thorax -4.92762 1.19834 -2.25814
lowerneck -24.7344 -13.9949 -11.7806
upperneck 3.52852 -17.3387 18.059
head 7.73083 -7.10811 5.20142
rclavicle -4.55217e-014 3.18055e-015
rhumerus 52.0695 -22.2782 -14.7301
rradius 35.1746
rwrist 52.7121
rhand -56.1618 -20.051
rfingers 7.12502
rthumb -28.4909 -47.9012
lclavicle -4.55217e-014 3.18055e-015
lhumerus -44.8725 14.9532 57.9337
lradius 37.3766
lwrist -6.27974
lhand -21.2964 25.3175
lfingers 7.12502
lthumb 5.08818 -304.764
rfemur -14.0982 -12.5125 19.7133
rtibia 30.8122
rfoot -16.7574 -3.08963
rtoes 5.73549
lfemur -11.0943 -5.50321 -6.29834
ltibia 23.9424
lfoot -13.9187 4.85553
ltoes -22.8556
2669
root 0.486852 17.7538 0.935217 3.83631 8.94047 -3.82897
lowerback 9.00594 1.91967 -0.243554
upperback -0.0497942 2.42889 -1.96509
thorax -5.02787 1.18166 -2.22959
lowerneck -24.5233 -13.9958 -11.745
upperneck 3.5503 -17.3786 18.056
head 7.70886 -7.13875 5.19352
rclavicle -4.05521e-014 2.46493e-014
rhumerus 52.02 -22.3931 -14.9376
rradius 34.9886
rwrist 52.5983
rhand -56.2392 -19.9565
rfingers 7.12502
rthumb -28.5648 -47.7942
lclavicle -4.05521e-014 2.46493e-014
lhumerus -44.9996 14.7408 57.8991
lradius 37.2695
lwrist -6.92493
lhand -20.2741 25.158
lfingers 7.12502
lthumb 6.07515 -304.949
rfemur -14.3585 -12.3534 19.728
rtibia 31.1617
rfoot -16.8893 -2.98684
rtoes 5.42894
lfemur -10.8954 -5.44417 -6.31037
ltibia 23.6609
lfoot -13.8353 5.02511
ltoes -22.8273
2670
root 0.453428 17.7494 0.940557 3.85923 8.67408 -3.67703
lowerback 9.0995 1.87327 -0.110456
upperback -0.0898294 2.38269 -1.89838
thorax -5.12135 1.15522 -2.23392
lowerneck -24.4929 -14.0135 -11.617
upperneck 3.70724 -17.4534 17.9427
head 7.74157 -7.17721 5.12196
rclavicle 7.15625e-015 1.11319e-014
rhumerus 51.9909 -22.5865 -15.1463
rradius 34.8267
rwrist 52.4565
rhand -56.2998 -19.7482
rfingers 7.12502
rthumb -28.6227 -47.5762
lclavicle 7.15625e-015 1.11319e-014
lhumerus -45.1168 14.927 57.5579
lradius 37.1
lwrist -8.44141
lhand -18.577 24.6365
lfingers 7.12502
lthumb 7.7134 -305.524
rfemur -14.5842 -12.346 19.6841
rtibia 31.5082
rfoot -16.9244 -2.80225
rtoes 4.83966
lfemur -10.6584 -5.36613 -6.368
ltibia 23.3923
lfoot -13.7569 5.17152
ltoes -22.7879
2671
root 0.421441 17.7443 0.943662 3.91431 8.49877 -3.4779
lowerback 9.13123 1.77844 0.00514417
upperback -0.0539445 2.27256 -1.82778
thorax -5.10382 1.09908 -2.21096
lowerneck -24.5418 -14.055 -11.6046
upperneck 3.76711 -17.5202 17.9476
head 7.7777 -7.20345 5.10583
rclavicle 1.35174e-014 2.14687e-014
rhumerus 52.1049 -22.9359 -15.4506
rradius 34.6915
rwrist 52.4027
rhand -56.2516 -19.5958
rfingers 7.12502
rthumb -28.5766 -47.4315
lclavicle 1.35174e-014 2.14687e-014
lhumerus -45.066 14.9331 57.6403
lradius 37.049
lwrist -8.92392
lhand -18.1926 25.0319
lfingers 7.12502
lthumb 8.08443 -305.143
rfemur -14.8274 -12.3997 19.5882
rtibia 31.8679
rfoot -16.9954 -2.60224
rtoes 4.62097
lfemur -10.5017 -5.31319 -6.47711
ltibia 23.1439
lfoot -13.676 5.23747
ltoes -22.8122
2672
root 0.391562 17.741 0.948898 4.02685 8.30888 -3.29707
lowerback 9.04555 1.70757 0.157418
upperback -0.0142987 2.19896 -1.7651
thorax -5.01344 1.06082 -2.21699
lowerneck -24.5872 -14.0968 -11.6507
upperneck 3.78775 -17.5781 18.0412
head 7.81562 -7.22081 5.12944
rclavicle -2.08724e-014 2.46493e-014
rhumerus 52.1567 -23.2787 -15.7562
rradius 34.5805
rwrist 52.2442
rhand -56.2292 -19.4624
rfingers 7.12502
rthumb -28.5553 -47.3017
lclavicle -2.08724e-014 2.46493e-014
lhumerus -44.8813 14.4869 58.0829
lradius 37.035
lwrist -8.36416
lhand -18.4209 25.3182
lfingers 7.12502
lthumb 7.8641 -304.848
rfemur -15.1145 -12.3741 19.5215
rtibia 32.215
rfoot -17.0846 -2.43608
rtoes 5.16184
lfemur -10.3783 -5.39751 -6.57
ltibia 22.8823
lfoot -13.6225 5.491
ltoes -22.9176
2673
root 0.36268 17.7372 0.955009 4.12141 8.0837 -3.1349
lowerback 8.89965 1.65763 0.395761
upperback 0.0210999 2.159 -1.76393
thorax -4.8871 1.03695 -2.338
lowerneck -24.4235 -14.1142 -11.635
upperneck 3.68585 -17.6379 18.2129
head 7.78711 -7.24906 5.17702
rclavicle -5.56597e-014 7.15625e-015
rhumerus 52.2044 -23.6435 -16.2888
rradius 34.4564
rwrist 52.3902
rhand -56.1813 -18.8662
rfingers 7.12502
rthumb -28.5095 -46.7133
lclavicle -5.56597e-014 7.15625e-015
lhumerus -44.7097 14.177 58.1856
lradius 36.8639
lwrist -8.33765
lhand -17.5493 25.3217
lfingers 7.12502
lthumb 8.70528 -304.878
rfemur -15.3731 -12.3132 19.4769
rtibia 32.5129
rfoot -17.1451 -2.336
rtoes 5.63654
lfemur -10.2231 -5.43755 -6.64911
ltibia 22.6114
lfoot -13.5239 5.75374
ltoes -23.0801
